EMG
version=1
nRows=17
nColumns=17
inDegrees=no
endheader
time	_right_gast_med	_right_glut_max	_left_gast_med	_left_glut_max	_right_glut_med	_right_bic_fem	_right_rect_fem	_right_vast_lat	_right_vast_med	_right_tens_fasc_lat	_left_glut_med	_left_bic_fem	_left_rect_fem	_left_vast_lat	_left_vast_med	_left_tens_fasc_lat
      0.54000000	     -0.36491555	     -0.02135562	      0.03471705	     -0.07520042	      0.06611765	      0.00763551	     -0.01443542	     -0.00619716	     -0.28331757	     -0.00479476	      0.05076283	     -0.00847636	     -0.01474919	      0.00750188	      0.00267734	      0.01350280
      0.55000000	     -0.26968938	     -0.01627038	      0.02782308	     -0.06673984	      0.11148630	     -0.01431970	      0.01116215	      0.01578839	     -0.13537300	      0.03763290	      0.03473879	     -0.01213316	     -0.00586665	     -0.00385946	      0.05261070	     -0.03317348
      0.56000000	     -0.27269244	     -0.01314805	      0.01214332	     -0.01848860	      0.12169310	     -0.03653624	     -0.00306688	      0.03024132	      0.16397083	      0.07550543	      0.01883527	      0.00386734	      0.00744534	      0.00731368	      0.04989717	     -0.00328610
      0.57000000	     -0.25615814	      0.02191592	      0.01116344	      0.01174199	      0.06191958	     -0.02441882	     -0.03788115	      0.02579522	      0.31602812	      0.07522208	      0.00800498	     -0.00373508	      0.01621385	      0.04264433	     -0.00218230	      0.04901202
      0.58000000	     -0.18386921	      0.04119219	      0.01720067	      0.00286617	     -0.12297435	      0.04620228	     -0.04226688	      0.02326041	      0.23433660	      0.04946854	      0.02891926	     -0.01418870	      0.01767542	      0.05242437	     -0.03768279	      0.05086644
      0.59000000	     -0.10156088	     -0.02506861	      0.01181259	     -0.01181646	     -0.28963217	      0.09032620	     -0.00671703	      0.02403226	      0.08057480	      0.02446508	      0.07651643	      0.00875330	      0.01623344	      0.02792429	     -0.05618708	      0.00739192
      0.60000000	     -0.04968414	     -0.08275394	     -0.00277889	     -0.00756881	     -0.21145089	      0.05651084	      0.03056601	     -0.08573515	     -0.02248551	     -0.00550144	      0.06600126	      0.02105213	      0.02369733	      0.01055007	     -0.04069130	     -0.02058993
      0.61000000	     -0.05837764	     -0.01129668	     -0.00581589	      0.01148527	      0.03026066	      0.00434239	      0.01693816	     -0.21712919	     -0.05255939	     -0.04277053	     -0.00625635	     -0.00347221	      0.03774149	     -0.00014630	      0.03099327	      0.00353135
      0.62000000	     -0.09706760	      0.05938534	      0.00618810	      0.03807982	      0.17898436	     -0.01385561	     -0.01782845	     -0.09840293	     -0.03649936	     -0.04140211	     -0.04991331	     -0.02161667	      0.03936387	     -0.03426258	      0.07549442	      0.05182271
      0.63000000	      0.20278215	      0.00193115	      0.01852046	      0.05607366	      0.18358935	     -0.03147168	      0.04763034	      0.04757464	     -0.00814111	      0.00569484	     -0.05552776	     -0.01493999	      0.01343841	     -0.06581582	      0.03438867	      0.04092400
      0.64000000	      0.87582999	     -0.05042790	      0.02271293	      0.04654964	      0.14388329	     -0.00635820	      0.19313632	      0.00472115	      0.03179432	      0.02006988	     -0.06835785	      0.00406642	     -0.02372266	     -0.04931923	     -0.02920763	     -0.01718679
      0.65000000	      0.64408356	      0.05747057	      0.01776132	     -0.00856884	      0.07984855	      0.10976391	      0.18837620	      0.04679778	      0.07686564	     -0.00318818	     -0.11130877	      0.01741639	     -0.03116872	      0.00930650	     -0.05850657	      0.00415531
      0.66000000	     -0.73377758	      0.15148830	      0.00978799	     -0.15970360	      0.00728582	      0.17955732	      0.00048341	      0.21223250	      0.01922265	      0.01326330	     -0.14532810	      0.00966130	     -0.01332234	      0.06819265	     -0.05328882	      0.06379922
      0.67000000	     -1.83908677	      0.07773451	     -0.01335313	     -0.33233958	     -0.06772234	      0.15821956	     -0.09903453	      0.31649134	     -0.16161831	      0.03172999	     -0.10187930	      0.02551191	      0.00176208	      0.09502667	     -0.05432490	      0.04690393
      0.68000000	     -2.21376157	     -0.00687926	     -0.03960470	     -0.19049674	     -0.10680932	      0.12244915	     -0.07782894	      0.27359691	     -0.26137805	     -0.01118134	     -0.01490711	      0.07704084	      0.00334683	      0.08961859	     -0.07172732	     -0.01786231
      0.69000000	     -1.69047880	     -0.03920937	     -0.01416230	      0.28701669	     -0.06311642	      0.04604152	     -0.10005692	      0.12853332	     -0.27078757	     -0.02764858	      0.03716071	      0.08853449	      0.00229296	      0.05596635	     -0.06575409	     -0.04886818
      0.70000000	     -0.46913415	     -0.04597628	      0.02799096	      0.54376042	     -0.00508070	     -0.08412342	     -0.10832090	     -0.06047978	     -0.33050963	      0.04134487	      0.05187538	      0.04304194	      0.01107547	      0.01109131	     -0.03643214	     -0.04283069
